<svg xmlns="http://www.w3.org/2000/svg" width="77" height="37" fill="#fff" xmlns:v="https://vecta.io/nano"><path d="M19.467 7.953l6.021 10.429H13.446l6.021-10.429zM9.734 20.468l6.021 10.429H3.713l6.021-10.429zm25.26-13.417l-6.11 10.377-5.932-10.48 12.042.103zm.003 23.507l-12.042.143 5.897-10.5 6.145 10.357zM13.24 19.519l12.042.061-6.074 10.399-5.968-10.46zM3.507 7.004l12.042.061-6.074 10.399-5.968-10.46zM50.896 29h4.613v-7.074h3.878c5.018 0 7.937-2.994 7.937-7.351 0-4.336-2.866-7.393-7.82-7.393h-8.608V29zm4.613-10.771v-7.276h3.111c2.663 0 3.952 1.449 3.952 3.622 0 2.163-1.289 3.654-3.931 3.654h-3.132zm16.353 11.048c1.364 0 2.546-1.14 2.557-2.557a2.59 2.59 0 0 0-2.557-2.535c-1.406 0-2.567 1.14-2.557 2.535-.011 1.417 1.151 2.557 2.557 2.557z"/></svg>