<svg xmlns="http://www.w3.org/2000/svg" width="51" height="38" fill="#a7c1ca" xmlns:v="https://vecta.io/nano"><path d="M50.136 20.288l-12.127-.071c.259-8.837 2.771-9.826 5.922-10.094l1.215-.143.057-9.719-1.4.067c-4.113.207-8.662.922-11.717 4.648-2.677 3.266-3.881 8.621-3.928 16.851l-.089 15.251 21.969.128.099-16.919zM22.007 37.044l.099-16.919-11.965-.07c.259-8.837 2.69-9.826 5.841-10.094l1.134-.144.057-9.719-1.319.067c-4.113.207-8.703.922-11.757 4.648C1.418 8.08.174 13.435.126 21.665L.038 36.916l21.969.128z"/></svg>