<svg xmlns="http://www.w3.org/2000/svg" width="35" height="30" fill="none" xmlns:v="https://vecta.io/nano"><path d="M35 .017c-1.523 1.129-3.21 1.993-4.995 2.558-.958-1.158-2.232-1.978-3.648-2.351a6.8 6.8 0 0 0-4.271.268c-1.364.547-2.535 1.521-3.355 2.791S17.48 6.056 17.5 7.591v1.672a16.28 16.28 0 0 1-8.064-1.897C6.938 6.044 4.789 4.094 3.182 1.689c0 0-6.364 15.047 7.955 21.735C7.86 25.761 3.957 26.933 0 26.767c14.318 8.36 31.818 0 31.818-19.227a7.9 7.9 0 0 0-.127-1.388C33.315 4.47 34.46 2.345 35 .017z" fill="#ffa800"/></svg>